<svg aria-hidden="true" style="position: absolute; width: 0; height: 0; overflow: hidden;" version="1.1"
    xmlns="http://www.w3.org/2000/svg" xmlns:xlink="http://www.w3.org/1999/xlink">
    <defs>
        <svg aria-hidden="true" style="position: absolute; width: 0; height: 0; overflow: hidden;" version="1.1"
            xmlns="http://www.w3.org/2000/svg" xmlns:xlink="http://www.w3.org/1999/xlink">
            <defs>
                <symbol id="icon-logo" viewBox="0 0 130 32">
                    <path fill="#3d3d3f" style="fill: var(--color1, #3d3d3f)"
                        d="M41.875 9.715h7.278c0.737 0 1.299-0.16 1.683-0.481 0.395-0.321 0.593-0.78 0.593-1.379s-0.198-1.053-0.593-1.363c-0.385-0.321-0.946-0.481-1.683-0.481h-7.278v3.703zM41.875 11.719v5.98h-2.148v-13.658h9.426c1.4 0 2.495 0.337 3.286 1.010s1.186 1.608 1.186 2.805c0 0.973-0.315 1.817-0.946 2.533-0.62 0.705-1.432 1.138-2.437 1.299l3.799 6.012h-2.324l-3.88-5.98h-5.964z">
                    </path>
                    <path fill="#3d3d3f" style="fill: var(--color1, #3d3d3f)"
                        d="M60.856 17.698v-6.989l-6.236-6.701h2.757l4.537 4.857 4.457-4.857h2.854l-6.268 6.669v7.022h-2.1z">
                    </path>
                    <path fill="#3d3d3f" style="fill: var(--color1, #3d3d3f)"
                        d="M74.851 17.698v-11.783h-5.772v-1.908h13.691v1.908h-5.788v11.783h-2.132z"></path>
                    <path fill="#3d3d3f" style="fill: var(--color1, #3d3d3f)"
                        d="M83.732 15.951l1.043-1.796c0.94 0.631 1.966 1.122 3.078 1.475s2.175 0.529 3.19 0.529c1.218 0 2.202-0.246 2.949-0.737 0.748-0.502 1.123-1.144 1.123-1.924s-0.342-1.357-1.026-1.731c-0.684-0.385-1.764-0.598-3.238-0.641-2.49-0.032-4.2-0.321-5.13-0.866s-1.395-1.448-1.395-2.709c0-1.176 0.508-2.121 1.523-2.837 1.026-0.716 2.399-1.074 4.12-1.074 1.176 0 2.314 0.166 3.415 0.497 1.111 0.331 2.18 0.823 3.206 1.475l-1.074 1.779c-0.855-0.577-1.774-1.021-2.757-1.331-0.984-0.321-1.924-0.481-2.822-0.481-1.037 0-1.87 0.182-2.5 0.545s-0.946 0.839-0.946 1.427c0 0.609 0.315 1.042 0.946 1.299 0.641 0.257 1.747 0.385 3.318 0.385 2.18 0 3.826 0.369 4.938 1.106s1.667 1.833 1.667 3.286c0 1.293-0.566 2.367-1.7 3.222-1.122 0.855-2.58 1.282-4.376 1.282-1.325 0-2.645-0.187-3.96-0.561-1.304-0.385-2.5-0.924-3.591-1.619z">
                    </path>
                    <path fill="#3d3d3f" style="fill: var(--color1, #3d3d3f)"
                        d="M101.19 17.698v-13.658h2.148v6.076l7.246-6.076h2.821l-5.739 4.857 6.605 8.801h-2.405l-5.707-7.551-2.821 2.389v5.162h-2.148z">
                    </path>
                    <path fill="#3d3d3f" style="fill: var(--color1, #3d3d3f)"
                        d="M119.112 12.408h5.354l-2.661-5.242-2.693 5.242zM114.159 17.698l6.957-13.69h1.347l7.022 13.69h-2.292l-1.78-3.479h-7.23l-1.763 3.479h-2.26z">
                    </path>
                    <path fill="#3d3d3f" style="fill: var(--color1, #3d3d3f)"
                        d="M0 17.698v-17.698h2.036l7.15 10.837 7.198-10.837h2.004v17.698h-2.18v-13.819l-7.022 10.468-7.022-10.468v13.819h-2.164z">
                    </path>
                    <path fill="#3d3d3f" style="fill: var(--color1, #3d3d3f)"
                        d="M23.261 17.698v-13.723h2.18v13.723h-2.18z"></path>
                    <path fill="#fd695a" style="fill: var(--color2, #fd695a)"
                        d="M40.56 18.602l-0.078-0.195c0.272-0.622 0.311-0.622 0.933-0.272-0.039 0.195-0.078 0.427-0.155 0.622-0.933 2.371-1.788 4.781-2.799 7.114-0.505 1.205-1.205 2.332-1.866 3.42-0.35 0.583-0.816 1.089-1.282 1.516-1.516 1.4-3.46 1.050-4.587-0.816-0.661-1.050-1.011-2.255-1.166-3.537-0.233-2.177-0.077-4.354 0.272-6.492 0.467-2.876 1.050-5.714 1.555-8.59l0.155-0.933c-1.283-0.233-2.488-0.389-3.693 0.039-0.622 0.233-1.573 0.99-2.001 1.534-0.077 0.116-0.155 0.233-0.272 0.311-0.272 0.194-0.816 0.117-1.011-0.155-0.155-0.233-0.078-0.583 0.272-0.933 0.583-0.583 1.651-1.34 2.39-1.534 1.089-0.311 2.216-0.35 3.343-0.233l1.089 0.117c0.078-0.194 0.155-0.35 0.195-0.544 0.35-1.71 0.7-3.421 1.011-5.131 0.155-0.855 0.35-1.089 1.049-1.011 0.311 0.039 0.622 0.117 0.894 0.233 0.739 0.35 0.972 0.739 0.855 1.711-0.155 1.671-0.389 3.343-0.622 5.014 0 0.155-0.039 0.311-0.078 0.544 1.011 0.194 2.448 0.032 3.381-0.473 0.233-0.117 0.895-0.542 1.129-0.697 1.569-1.122 0.502 1.169-1.457 1.757-0.833 0.25-2.247 0.368-3.169 0.346l-0.233 1.166c-0.583 3.654-1.205 7.269-1.749 10.923-0.272 1.982-0.428 3.965-0.194 5.947 0.039 0.505 0.117 1.011 0.466 1.516 0.272-0.156 0.583-0.272 0.855-0.467 0.816-0.583 1.516-1.322 2.060-2.254 0.7-1.166 1.361-2.371 1.943-3.615 0.894-1.944 1.711-3.965 2.566-5.947v-0.001zM52.278 25.772l0.033 0.1c0.2 0 0.333 0.2 0.233 0.4-1.199 2.565-3.297 5.629-4.663 5.629-1.532 0-2.332-1.033-2.332-2.331l0.1-1.366c-0.633 1.499-1.798 3.664-3.564 3.664 0 0-1.932 0.133-1.932-3.231s2.232-6.994 4.43-6.994c0.966-0.033 1.765 0.5 2.232 0.999 0.033-0.166 0.066-0.333 0.133-0.5 0.066-0.233 0.266-0.4 0.5-0.433 0.3-0.033 0.633-0.033 0.999 0 0.433 0.033 0.733 0.466 0.633 0.899-0.933 3.731-1.699 7.727-0.633 7.727 0.999 0 2.598-2.398 3.597-4.396 0.033-0.1 0.133-0.166 0.233-0.166h-0zM45.85 26.804h-0.033c0.166-1.133 0.399-2.132 0.733-3.297-0.266-0.366-0.733-0.8-1.332-0.8-1.599 0-3.731 8.427-2.565 8.427 0.899 0 2.065-2.365 3.197-4.33h0zM66.934 25.772l0.1-0.033c0.2 0 0.333 0.2 0.233 0.399-1.199 2.565-2.864 5.629-4.496 5.629-1.532 0-2.332-1.033-2.332-2.331 0-1.333 1.932-6.362 1.765-6.362-1.299 0-3.797 5.329-4.796 7.994l-0.033 0.133c-0.066 0.233-0.333 0.366-0.566 0.266-0.466-0.233-1.099-0.766-0.966-2.032 0.166-1.299 1.965-6.329 1.798-6.329-1.566 0-3.597 6.128-4.197 7.961l-0.033 0.3c-0.033 0.233-0.233 0.4-0.466 0.4h-0.533c-0.699 0-1.232-0.599-1.133-1.299l0.533-4.13c0.166-1.366 0.433-2.598 0.966-4.197 0.066-0.233 0.267-0.4 0.5-0.433 0.3-0.033 0.633-0.033 0.999 0 0.433 0.033 0.733 0.466 0.633 0.899-0.3 1.265-0.566 2.565-0.766 3.731l-0.066 0.533c0.899-2.398 2.398-5.063 4.23-4.929 1.932 0 1.066 2.298 1.066 2.298-0.066 0.333-0.166 0.633-0.267 0.933 1.033-1.832 2.365-3.364 3.731-3.264 1.932 0 1.066 2.298 1.066 2.298-0.933 3.731-2.165 6.128-0.599 6.128 0.999 0 2.398-2.398 3.397-4.396 0.033-0.1 0.133-0.166 0.233-0.166v0zM77.974 25.772l0.033 0.1c0.2 0 0.333 0.2 0.234 0.4-1.199 2.565-3.298 5.629-4.664 5.629-1.532 0-2.332-1.033-2.332-2.331l0.1-1.366c-0.633 1.499-1.798 3.664-3.564 3.664 0 0-1.932 0.133-1.932-3.231s2.232-6.994 4.43-6.994c0.966-0.033 1.766 0.5 2.232 0.999 0.033-0.166 0.067-0.333 0.134-0.5 0.067-0.233 0.266-0.4 0.499-0.433 0.3-0.033 0.633-0.033 1 0 0.433 0.033 0.733 0.466 0.633 0.899-0.932 3.731-1.699 7.727-0.633 7.727 0.999 0 2.598-2.398 3.597-4.396 0.033-0.1 0.133-0.166 0.233-0.166h-0.001zM71.546 26.804h-0.033c0.166-1.133 0.399-2.132 0.733-3.297-0.267-0.366-0.733-0.8-1.332-0.8-1.599 0-3.731 8.427-2.564 8.427 0.899 0 2.065-2.365 3.197-4.33v0zM86.102 25.738l0.1 0.033c0.2 0 0.333 0.233 0.233 0.433-1.299 2.831-4.029 5.795-6.561 5.795-1.798 0-1.798-1.299-1.232-2.764 0.699-1.765 2.231-3.431 1.865-3.83-0.433-0.433-0.666-0.799-1.199-1.133-0.133 0.2-0.666 1.532-0.866 1.699-0.166 0.3-0.866 0.2-0.766 0 0.233-0.266 0.833-1.565 1.033-1.965-0.899-0.633-1.665-1.266-1.665-2.232 0-1.033 0.799-2.098 1.665-2.098 1.432 0 1.699 0.866 1.699 1.066 0 0.899-0.166 1.799-0.533 2.565 1.166 0.733 2.598 1.099 2.598 2.398 0 0.866-0.833 2.698-1.799 4.163-0.699 1.066-0.599 1.233-0.233 1.233 1.533 0 4.131-2.365 5.429-5.196 0.033-0.1 0.133-0.166 0.234-0.166h-0.001zM79.373 22.874h0.033c0.166-0.466 0.267-0.999 0.267-1.532 0-0.433-0.134-0.733-0.333-0.733-0.233 0-0.399 0.466-0.399 1.133 0 0.466 0.166 0.833 0.433 1.133l-0.001-0zM97.165 25.772l0.034 0.1c0.2 0 0.333 0.2 0.233 0.4-1.199 2.565-3.297 5.629-4.663 5.629-1.533 0-2.332-1.033-2.332-2.331l0.1-1.366c-0.633 1.499-1.798 3.664-3.564 3.664 0 0-1.932 0.133-1.932-3.231s2.232-6.994 4.43-6.994c0.966-0.033 1.765 0.5 2.232 0.999 0.033-0.166 0.067-0.333 0.133-0.5 0.067-0.233 0.267-0.4 0.5-0.433 0.3-0.033 0.633-0.033 0.999 0 0.433 0.033 0.733 0.466 0.633 0.899-0.932 3.731-1.699 7.727-0.633 7.727 0.999 0 2.598-2.398 3.597-4.396 0.033-0.1 0.133-0.166 0.233-0.166h-0.001zM90.737 26.804h-0.033c0.167-1.133 0.4-2.132 0.733-3.297-0.266-0.366-0.733-0.8-1.332-0.8-1.599 0-3.731 8.427-2.564 8.427 0.899 0 2.065-2.365 3.197-4.33v0z">
                    </path>
                </symbol>
            </defs>
        </svg>
        <svg aria-hidden="true" style="position: absolute; width: 0; height: 0; overflow: hidden;" version="1.1"
            xmlns="http://www.w3.org/2000/svg" xmlns:xlink="http://www.w3.org/1999/xlink">
            <defs>
                <symbol id="icon-burger" viewBox="0 0 31 32">
                    <path
                        d="M3.84 10.24c0-0.53 0.43-0.96 0.96-0.96h21.12c0.53 0 0.96 0.43 0.96 0.96s-0.43 0.96-0.96 0.96h-21.12c-0.53 0-0.96-0.43-0.96-0.96z">
                    </path>
                    <path
                        d="M3.84 16c0-0.53 0.43-0.96 0.96-0.96h21.12c0.53 0 0.96 0.43 0.96 0.96s-0.43 0.96-0.96 0.96h-21.12c-0.53 0-0.96-0.43-0.96-0.96z">
                    </path>
                    <path
                        d="M3.84 21.76c0-0.53 0.43-0.96 0.96-0.96h21.12c0.53 0 0.96 0.43 0.96 0.96s-0.43 0.96-0.96 0.96h-21.12c-0.53 0-0.96-0.43-0.96-0.96z">
                    </path>
                </symbol>
            </defs>
        </svg>
        <svg aria-hidden="true" style="position: absolute; width: 0; height: 0; overflow: hidden;" version="1.1"
            xmlns="http://www.w3.org/2000/svg" xmlns:xlink="http://www.w3.org/1999/xlink">
            <defs>
                <symbol id="icon-vector" viewBox="0 0 40 32">
                    <path fill="#fff" style="fill: var(--color1, #fff)"
                        d="M38.587 1.366c0.269 0.227 0.49 0.504 0.651 0.816s0.257 0.651 0.284 0.999-0.016 0.698-0.126 1.030c-0.11 0.332-0.286 0.639-0.517 0.904l-21.579 24.805c-0.242 0.278-0.54 0.504-0.874 0.663s-0.699 0.249-1.071 0.263-0.742-0.048-1.088-0.182c-0.346-0.134-0.66-0.337-0.923-0.596l-12.588-12.402c-0.491-0.501-0.763-1.173-0.756-1.87s0.29-1.363 0.791-1.856c0.5-0.493 1.177-0.772 1.884-0.777s1.388 0.262 1.897 0.747l10.53 10.372 19.683-22.625c0.466-0.534 1.128-0.865 1.841-0.919s1.418 0.17 1.961 0.628z">
                    </path>
                </symbol>
            </defs>
        </svg>

    </defs>
</svg>