<svg aria-hidden="true" style="position: absolute; width: 0; height: 0; overflow: hidden;" version="1.1"
    xmlns="http://www.w3.org/2000/svg" xmlns:xlink="http://www.w3.org/1999/xlink">
    <defs>
        <svg aria-hidden="true" style="position: absolute; width: 0; height: 0; overflow: hidden;" version="1.1"
            xmlns="http://www.w3.org/2000/svg" xmlns:xlink="http://www.w3.org/1999/xlink">
            <defs>
                <symbol id="icon-logo" viewBox="0 0 148 32">
                    <path fill="#3d3d3f" style="fill: var(--color1, #3d3d3f)"
                        d="M9.931 16.887v-16.887h1.943l6.822 10.34 6.868-10.34h1.912v16.887h-2.080v-13.185l-6.7 9.988-6.7-9.988v13.185h-2.065zM32.126 16.887v-13.094h2.080v13.094h-2.080z">
                    </path>
                    <path fill="#3d3d3f" style="fill: var(--color1, #3d3d3f)"
                        d="M49.747 9.27h6.945c0.704 0 1.239-0.153 1.606-0.459 0.377-0.306 0.566-0.744 0.566-1.316s-0.189-1.004-0.566-1.3c-0.367-0.306-0.903-0.459-1.606-0.459h-6.945v3.533zM49.747 11.181v5.706h-2.050v-13.032h8.994c1.336 0 2.381 0.321 3.136 0.964s1.132 1.535 1.132 2.677c0 0.928-0.301 1.734-0.903 2.417-0.591 0.673-1.367 1.086-2.325 1.239l3.625 5.736h-2.218l-3.702-5.706h-5.69zM64.676 16.887v-13.094h2.080v13.094h-2.080zM69.571 16.887l8.458-11.151h-7.709v-1.912h11.472l-8.535 11.182h8.458v1.882h-12.145zM84.989 16.887v-13.032h2.050v5.797l6.914-5.797h2.692l-5.476 4.635 6.302 8.398h-2.294l-5.445-7.204-2.692 2.279v4.925h-2.049zM102.090 11.839h5.109l-2.539-5.002-2.57 5.002zM97.363 16.887l6.639-13.063h1.285l6.7 13.063h-2.188l-1.697-3.319h-6.898l-1.682 3.319h-2.158zM116.131 16.887v-6.669l-5.95-6.394h2.631l4.329 4.635 4.253-4.635h2.722l-5.98 6.364v6.7h-2.005zM127.053 11.839h5.108l-2.539-5.002-2.569 5.002zM122.327 16.887l6.638-13.063h1.284l6.7 13.063h-2.188l-1.697-3.319h-6.899l-1.683 3.319h-2.156z">
                    </path>
                    <path fill="#fd695a" style="fill: var(--color2, #fd695a)"
                        d="M48.933 18.687l-0.077-0.193c0.27-0.618 0.309-0.618 0.927-0.27-0.039 0.193-0.077 0.425-0.154 0.618-0.927 2.356-1.777 4.751-2.781 7.068-0.502 1.197-1.197 2.317-1.854 3.399-0.348 0.579-0.811 1.082-1.274 1.506-1.507 1.391-3.438 1.043-4.558-0.811-0.656-1.043-1.004-2.24-1.159-3.515-0.231-2.163-0.077-4.326 0.271-6.45 0.464-2.858 1.043-5.678 1.545-8.536l0.154-0.927c-1.274-0.232-2.472-0.386-3.669 0.039-0.618 0.232-1.563 0.984-1.988 1.525-0.077 0.116-0.154 0.232-0.27 0.309-0.271 0.193-0.811 0.116-1.004-0.154-0.154-0.232-0.077-0.579 0.27-0.927 0.579-0.579 1.641-1.331 2.374-1.524 1.082-0.309 2.202-0.348 3.322-0.232l1.082 0.116c0.077-0.193 0.154-0.348 0.193-0.541 0.347-1.7 0.695-3.399 1.004-5.098 0.154-0.85 0.347-1.082 1.043-1.004 0.309 0.039 0.618 0.116 0.888 0.232 0.734 0.347 0.966 0.734 0.85 1.7-0.154 1.661-0.386 3.322-0.618 4.982 0 0.154-0.039 0.309-0.077 0.541 1.004 0.193 2.432 0.032 3.359-0.47 0.231-0.116 0.89-0.539 1.122-0.693 1.559-1.115 0.498 1.161-1.448 1.746-0.827 0.249-2.233 0.365-3.149 0.344l-0.231 1.159c-0.579 3.631-1.197 7.223-1.738 10.853-0.27 1.97-0.425 3.94-0.193 5.909 0.039 0.502 0.116 1.004 0.463 1.507 0.27-0.154 0.579-0.27 0.85-0.464 0.811-0.579 1.506-1.313 2.047-2.24 0.695-1.159 1.352-2.356 1.931-3.592 0.888-1.931 1.7-3.94 2.549-5.909v-0.001zM60.577 25.812l0.033 0.099c0.198 0 0.331 0.198 0.231 0.397-1.191 2.548-3.276 5.593-4.633 5.593-1.522 0-2.317-1.026-2.317-2.316l0.099-1.357c-0.629 1.489-1.787 3.64-3.541 3.64 0 0-1.92 0.132-1.92-3.21s2.217-6.95 4.402-6.95c0.96-0.033 1.754 0.496 2.218 0.993 0.033-0.165 0.066-0.331 0.132-0.496 0.066-0.231 0.265-0.397 0.496-0.43 0.298-0.033 0.629-0.033 0.993 0 0.43 0.033 0.728 0.463 0.629 0.894-0.927 3.707-1.688 7.678-0.629 7.678 0.993 0 2.581-2.383 3.574-4.368 0.033-0.099 0.133-0.165 0.232-0.165h-0zM54.189 26.838h-0.033c0.165-1.125 0.397-2.118 0.728-3.276-0.265-0.364-0.728-0.794-1.324-0.794-1.588 0-3.707 8.373-2.548 8.373 0.893 0 2.052-2.35 3.177-4.302h0zM75.139 25.812l0.1-0.033c0.198 0 0.331 0.198 0.231 0.397-1.191 2.548-2.846 5.593-4.468 5.593-1.522 0-2.317-1.026-2.317-2.316 0-1.324 1.92-6.321 1.754-6.321-1.291 0-3.773 5.295-4.766 7.943l-0.033 0.132c-0.066 0.232-0.331 0.364-0.563 0.265-0.463-0.232-1.092-0.761-0.96-2.019 0.165-1.291 1.952-6.288 1.787-6.288-1.555 0-3.574 6.089-4.17 7.91l-0.033 0.298c-0.033 0.232-0.231 0.397-0.463 0.397h-0.529c-0.695 0-1.224-0.596-1.125-1.29l0.529-4.104c0.165-1.357 0.43-2.581 0.96-4.17 0.066-0.232 0.265-0.397 0.497-0.43 0.298-0.033 0.629-0.033 0.993 0 0.43 0.033 0.728 0.463 0.629 0.894-0.298 1.257-0.563 2.548-0.761 3.707l-0.066 0.53c0.894-2.383 2.383-5.030 4.203-4.898 1.92 0 1.059 2.283 1.059 2.283-0.066 0.331-0.165 0.629-0.265 0.927 1.026-1.82 2.35-3.343 3.707-3.243 1.919 0 1.059 2.283 1.059 2.283-0.927 3.707-2.151 6.089-0.596 6.089 0.993 0 2.383-2.383 3.376-4.368 0.033-0.099 0.132-0.165 0.231-0.165h-0zM86.109 25.812l0.033 0.099c0.199 0 0.331 0.198 0.232 0.397-1.191 2.548-3.276 5.593-4.633 5.593-1.522 0-2.317-1.026-2.317-2.316l0.099-1.357c-0.629 1.489-1.787 3.64-3.541 3.64 0 0-1.92 0.132-1.92-3.21s2.217-6.95 4.402-6.95c0.96-0.033 1.754 0.496 2.217 0.993 0.033-0.165 0.066-0.331 0.133-0.496 0.066-0.231 0.265-0.397 0.496-0.43 0.298-0.033 0.629-0.033 0.993 0 0.43 0.033 0.728 0.463 0.629 0.894-0.926 3.707-1.688 7.678-0.629 7.678 0.993 0 2.581-2.383 3.574-4.368 0.033-0.099 0.132-0.165 0.231-0.165h-0zM79.722 26.838h-0.033c0.165-1.125 0.397-2.118 0.728-3.276-0.265-0.364-0.728-0.794-1.324-0.794-1.589 0-3.707 8.373-2.548 8.373 0.893 0 2.052-2.35 3.177-4.302h0zM94.184 25.779l0.099 0.033c0.198 0 0.331 0.232 0.231 0.43-1.29 2.813-4.004 5.758-6.52 5.758-1.787 0-1.787-1.29-1.224-2.747 0.695-1.754 2.217-3.409 1.853-3.806-0.43-0.43-0.662-0.794-1.191-1.125-0.132 0.198-0.662 1.522-0.86 1.688-0.165 0.298-0.86 0.199-0.761 0 0.231-0.265 0.827-1.555 1.026-1.953-0.894-0.629-1.655-1.257-1.655-2.217 0-1.026 0.794-2.085 1.655-2.085 1.423 0 1.688 0.861 1.688 1.059 0 0.894-0.165 1.787-0.529 2.548 1.158 0.728 2.581 1.092 2.581 2.383 0 0.86-0.828 2.681-1.787 4.137-0.695 1.059-0.596 1.225-0.231 1.225 1.522 0 4.104-2.35 5.394-5.163 0.033-0.099 0.132-0.165 0.232-0.165h-0zM87.499 22.932h0.033c0.165-0.463 0.265-0.993 0.265-1.522 0-0.43-0.132-0.728-0.331-0.728-0.232 0-0.397 0.463-0.397 1.125 0 0.463 0.165 0.828 0.43 1.125l-0-0zM105.177 25.812l0.033 0.099c0.198 0 0.331 0.198 0.231 0.397-1.191 2.548-3.276 5.593-4.633 5.593-1.522 0-2.316-1.026-2.316-2.316l0.099-1.357c-0.629 1.489-1.787 3.64-3.541 3.64 0 0-1.919 0.132-1.919-3.21s2.217-6.95 4.402-6.95c0.96-0.033 1.754 0.496 2.217 0.993 0.033-0.165 0.066-0.331 0.132-0.496 0.066-0.231 0.265-0.397 0.496-0.43 0.298-0.033 0.629-0.033 0.993 0 0.43 0.033 0.728 0.463 0.629 0.894-0.926 3.707-1.688 7.678-0.629 7.678 0.993 0 2.581-2.383 3.574-4.368 0.033-0.099 0.132-0.165 0.231-0.165h-0zM98.79 26.838h-0.033c0.166-1.125 0.397-2.118 0.728-3.276-0.265-0.364-0.728-0.794-1.324-0.794-1.588 0-3.707 8.373-2.548 8.373 0.894 0 2.052-2.35 3.177-4.302h0z">
                    </path>
                </symbol>
            </defs>
        </svg>
        <svg aria-hidden="true" style="position: absolute; width: 0; height: 0; overflow: hidden;" version="1.1"
            xmlns="http://www.w3.org/2000/svg" xmlns:xlink="http://www.w3.org/1999/xlink">
            <defs>
                <symbol id="icon-burger" viewBox="0 0 31 32">
                    <path
                        d="M3.84 10.24c0-0.53 0.43-0.96 0.96-0.96h21.12c0.53 0 0.96 0.43 0.96 0.96s-0.43 0.96-0.96 0.96h-21.12c-0.53 0-0.96-0.43-0.96-0.96z">
                    </path>
                    <path
                        d="M3.84 16c0-0.53 0.43-0.96 0.96-0.96h21.12c0.53 0 0.96 0.43 0.96 0.96s-0.43 0.96-0.96 0.96h-21.12c-0.53 0-0.96-0.43-0.96-0.96z">
                    </path>
                    <path
                        d="M3.84 21.76c0-0.53 0.43-0.96 0.96-0.96h21.12c0.53 0 0.96 0.43 0.96 0.96s-0.43 0.96-0.96 0.96h-21.12c-0.53 0-0.96-0.43-0.96-0.96z">
                    </path>
                </symbol>
            </defs>
        </svg>


        <symbol id="icon-Icon01" viewBox="0 0 32 32">
            <path fill="#fff" style="fill: var(--color1, #fff)"
                d="M31.272 4.686l-4.733 22.812c-0.357 1.61-1.288 2.010-2.611 1.253l-7.212-5.431-3.479 3.421c-0.385 0.394-0.707 0.722-1.45 0.722l0.519-7.506 13.365-12.343c0.581-0.529-0.127-0.823-0.903-0.293l-16.523 10.634-7.113-2.276c-1.547-0.493-1.575-1.581 0.323-2.34l27.822-10.956c1.288-0.493 2.415 0.292 1.995 2.304z">
            </path>
        </symbol>
        <symbol id="icon-Icon05" viewBox="0 0 31 32">
            <path
                d="M22.618 0.343h-14.223c-4.629 0-8.395 3.766-8.395 8.395v14.223c0 4.629 3.766 8.395 8.395 8.395h14.223c4.629 0 8.395-3.766 8.395-8.395v-14.223c0-4.629-3.766-8.395-8.395-8.395v0zM15.506 24.329c-4.676 0-8.48-3.804-8.48-8.48s3.804-8.48 8.48-8.48 8.48 3.804 8.48 8.48c0 4.676-3.804 8.48-8.48 8.48zM24.189 9.37c-1.382 0-2.506-1.124-2.506-2.506s1.124-2.506 2.506-2.506c1.382 0 2.506 1.124 2.506 2.506s-1.124 2.506-2.506 2.506z">
            </path>
            <path
                d="M15.508 9.188c-3.673 0-6.662 2.988-6.662 6.662s2.989 6.662 6.662 6.662c3.673 0 6.662-2.989 6.662-6.662s-2.988-6.662-6.662-6.662z">
            </path>
            <path
                d="M24.19 6.176c-0.379 0-0.688 0.309-0.688 0.688s0.308 0.688 0.688 0.688c0.379 0 0.688-0.308 0.688-0.688s-0.309-0.688-0.688-0.688z">
            </path>
        </symbol>
        <symbol id="icon-Icon04" viewBox="0 0 31 32">
            <path
                d="M17.909 31.517v-14.145h4.746l0.712-5.514h-5.458v-3.52c0-1.596 0.441-2.684 2.733-2.684l2.918-0.001v-4.932c-0.505-0.066-2.236-0.216-4.252-0.216-4.209 0-7.091 2.569-7.091 7.287v4.066h-4.76v5.514h4.76v14.145h5.693z">
            </path>
        </symbol>
        <symbol id="icon-Icon03" viewBox="0 0 31 32">
            <path
                d="M12.405 20.535l8.048-4.652-8.048-4.652v9.304zM30.331 8.394c0.202 0.729 0.341 1.706 0.434 2.946 0.109 1.241 0.155 2.31 0.155 3.241l0.093 1.303c0 3.396-0.248 5.892-0.682 7.49-0.388 1.396-1.287 2.295-2.683 2.683-0.729 0.202-2.062 0.341-4.109 0.434-2.016 0.108-3.861 0.155-5.567 0.155l-2.466 0.093c-6.497 0-10.544-0.248-12.142-0.682-1.396-0.388-2.295-1.287-2.683-2.683-0.202-0.729-0.341-1.706-0.434-2.946-0.109-1.241-0.155-2.31-0.155-3.241l-0.093-1.303c0-3.396 0.248-5.892 0.682-7.49 0.388-1.396 1.287-2.295 2.683-2.683 0.729-0.202 2.062-0.341 4.109-0.434 2.016-0.109 3.861-0.155 5.567-0.155l2.466-0.093c6.497 0 10.544 0.248 12.142 0.682 1.396 0.388 2.295 1.287 2.683 2.683z">
            </path>
        </symbol>
        <symbol id="icon-Icon02" viewBox="0 0 31 32">
            <path
                d="M15.633 0.579h-0.008c-8.617 0-15.624 7.009-15.624 15.628 0 3.419 1.102 6.587 2.975 9.16l-1.948 5.806 6.007-1.92c2.471 1.637 5.419 2.583 8.597 2.583 8.617 0 15.624-7.011 15.624-15.628s-7.007-15.628-15.624-15.628zM24.727 22.648c-0.377 1.065-1.873 1.948-3.067 2.205-0.817 0.174-1.883 0.313-5.474-1.176-4.593-1.903-7.55-6.57-7.781-6.872-0.221-0.303-1.856-2.471-1.856-4.714s1.139-3.335 1.598-3.803c0.377-0.385 1-0.561 1.598-0.561 0.193 0 0.367 0.010 0.524 0.018 0.459 0.019 0.69 0.047 0.992 0.772 0.377 0.908 1.295 3.151 1.405 3.381 0.111 0.231 0.223 0.543 0.066 0.846-0.147 0.313-0.275 0.451-0.506 0.717s-0.449 0.469-0.68 0.754c-0.211 0.248-0.449 0.514-0.184 0.973 0.266 0.449 1.184 1.948 2.536 3.151 1.744 1.553 3.159 2.049 3.665 2.26 0.377 0.156 0.826 0.119 1.102-0.174 0.35-0.377 0.781-1.002 1.221-1.617 0.313-0.441 0.707-0.496 1.121-0.34 0.422 0.147 2.655 1.25 3.114 1.479 0.459 0.231 0.762 0.34 0.873 0.533 0.109 0.193 0.109 1.102-0.268 2.168z">
            </path>
        </symbol>
        <symbol id="icon-Vector" viewBox="0 0 40 32">
            <path fill="#fff" style="fill: var(--color1, #fff)"
                d="M38.587 1.366c0.269 0.227 0.49 0.504 0.651 0.816s0.257 0.651 0.284 0.999-0.016 0.698-0.126 1.030c-0.11 0.332-0.286 0.639-0.517 0.904l-21.579 24.805c-0.242 0.278-0.54 0.504-0.874 0.663s-0.699 0.249-1.071 0.263-0.742-0.048-1.088-0.182c-0.346-0.134-0.66-0.337-0.923-0.596l-12.588-12.402c-0.491-0.501-0.763-1.173-0.756-1.87s0.29-1.363 0.791-1.856c0.5-0.493 1.177-0.772 1.884-0.777s1.388 0.262 1.897 0.747l10.53 10.372 19.683-22.625c0.466-0.534 1.128-0.865 1.841-0.919s1.418 0.17 1.961 0.628z">
            </path>
        </symbol>
    </defs>
</svg>