<svg aria-hidden="true" style="position: absolute; width: 0; height: 0; overflow: hidden;" version="1.1" xmlns="http://www.w3.org/2000/svg" xmlns:xlink="http://www.w3.org/1999/xlink">
<defs>
<symbol id="icon-instagram" viewBox="0 0 32 32">
<path d="M23.381 0h-14.603c-4.753 0-8.619 3.866-8.619 8.619v14.603c0 4.753 3.867 8.619 8.619 8.619h14.603c4.753 0 8.619-3.866 8.619-8.619v-14.603c0-4.753-3.866-8.619-8.619-8.619v0zM16.079 24.627c-4.801 0-8.706-3.906-8.706-8.706s3.906-8.706 8.706-8.706c4.801 0 8.706 3.906 8.706 8.706s-3.906 8.706-8.706 8.706zM24.994 9.268c-1.419 0-2.573-1.154-2.573-2.573s1.154-2.573 2.573-2.573c1.419 0 2.573 1.154 2.573 2.573s-1.154 2.573-2.573 2.573z"></path>
<path d="M16.080 9.081c-3.771 0-6.84 3.068-6.84 6.84s3.069 6.84 6.84 6.84c3.771 0 6.84-3.069 6.84-6.84s-3.068-6.84-6.84-6.84z"></path>
<path d="M24.995 5.989c-0.389 0-0.706 0.317-0.706 0.706s0.317 0.706 0.706 0.706c0.389 0 0.706-0.317 0.706-0.706s-0.317-0.706-0.706-0.706z"></path>
</symbol>
<symbol id="icon-facebook" viewBox="0 0 33 32">
<path d="M19.161 31.842v-14.523h4.873l0.731-5.662h-5.604v-3.614c0-1.639 0.453-2.755 2.806-2.755l2.995-0.001v-5.064c-0.518-0.067-2.296-0.222-4.366-0.222-4.322 0-7.281 2.638-7.281 7.482v4.175h-4.888v5.662h4.888v14.523h5.845z"></path>
</symbol>
<symbol id="icon-youtube" viewBox="0 0 33 32">
<path d="M13.092 20.401l8.263-4.776-8.263-4.776v9.552zM31.496 7.935c0.207 0.748 0.35 1.751 0.446 3.025 0.111 1.274 0.159 2.372 0.159 3.327l0.096 1.337c0 3.487-0.255 6.050-0.701 7.69-0.398 1.433-1.322 2.356-2.754 2.754-0.748 0.207-2.117 0.35-4.219 0.446-2.070 0.111-3.964 0.159-5.716 0.159l-2.531 0.095c-6.671 0-10.826-0.255-12.466-0.701-1.433-0.398-2.356-1.321-2.754-2.754-0.207-0.748-0.35-1.751-0.446-3.025-0.111-1.274-0.159-2.372-0.159-3.327l-0.096-1.337c0-3.487 0.255-6.050 0.701-7.69 0.398-1.433 1.321-2.356 2.754-2.754 0.748-0.207 2.117-0.35 4.219-0.446 2.070-0.111 3.964-0.159 5.715-0.159l2.531-0.096c6.671 0 10.826 0.255 12.466 0.7 1.433 0.398 2.356 1.321 2.754 2.754z"></path>
</symbol>
<symbol id="icon-viber" viewBox="0 0 32 32">
<path d="M16.104 0.48h-0.008c-8.646 0-15.677 7.033-15.677 15.681 0 3.43 1.105 6.609 2.985 9.191l-1.954 5.825 6.027-1.927c2.48 1.643 5.437 2.591 8.626 2.591 8.646 0 15.677-7.035 15.677-15.681s-7.031-15.681-15.677-15.681zM25.229 22.623c-0.378 1.068-1.88 1.954-3.077 2.213-0.819 0.174-1.89 0.314-5.492-1.18-4.608-1.909-7.576-6.592-7.807-6.896-0.222-0.304-1.862-2.479-1.862-4.73s1.143-3.346 1.603-3.816c0.378-0.386 1.004-0.563 1.603-0.563 0.194 0 0.368 0.010 0.525 0.018 0.461 0.020 0.692 0.047 0.996 0.774 0.378 0.911 1.3 3.162 1.409 3.393 0.112 0.231 0.223 0.545 0.067 0.849-0.147 0.314-0.276 0.453-0.508 0.719s-0.451 0.47-0.682 0.757c-0.212 0.249-0.451 0.515-0.184 0.976 0.267 0.451 1.188 1.954 2.544 3.162 1.75 1.558 3.169 2.056 3.677 2.268 0.378 0.157 0.829 0.12 1.105-0.174 0.351-0.378 0.784-1.006 1.225-1.623 0.314-0.443 0.71-0.498 1.125-0.341 0.423 0.147 2.664 1.254 3.124 1.484 0.461 0.231 0.764 0.341 0.876 0.535 0.11 0.194 0.11 1.105-0.269 2.176z"></path>
</symbol>
<symbol id="icon-mail" viewBox="0 0 32 32">
<path stroke-linejoin="round" stroke-linecap="round" stroke-miterlimit="4" stroke-width="1.9176" d="M22.886 11.331l-5.68 4.619c-1.073 0.851-2.583 0.851-3.656 0l-5.728-4.619"></path>
<path stroke-linejoin="round" stroke-linecap="round" stroke-miterlimit="4" stroke-width="1.9176" d="M21.616 26.862c3.888 0.011 6.509-3.184 6.509-7.11v-8.781c0-3.926-2.62-7.121-6.509-7.121h-12.551c-3.888 0-6.509 3.194-6.509 7.121v8.781c0 3.926 2.62 7.121 6.509 7.11h12.551z"></path>
</symbol>
<symbol id="icon-tel" viewBox="0 0 32 32">
<path stroke-linejoin="round" stroke-linecap="round" stroke-miterlimit="4" stroke-width="1.9176" d="M18.347 3.196c4.731 0.525 8.469 4.258 9 8.99"></path>
<path stroke-linejoin="round" stroke-linecap="round" stroke-miterlimit="4" stroke-width="1.9176" d="M18.347 7.725c2.264 0.44 4.033 2.21 4.474 4.474"></path>
<path stroke-linejoin="round" stroke-linecap="round" stroke-miterlimit="4" stroke-width="1.9176" d="M14.103 15.944c5.1 5.098 6.256-0.8 9.503 2.445 3.13 3.129 4.931 3.756 0.963 7.721-0.497 0.399-3.653 5.203-14.746-5.887-11.094-11.091-6.293-14.251-5.894-14.747 3.976-3.976 4.593-2.166 7.723 0.963 3.246 3.246-2.65 4.407 2.45 9.505z"></path>
</symbol>
<symbol id="icon-telegram" viewBox="0 0 32 32">
<path d="M31.272 4.686l-4.733 22.812c-0.357 1.61-1.288 2.010-2.611 1.253l-7.212-5.431-3.479 3.421c-0.385 0.394-0.707 0.722-1.45 0.722l0.519-7.506 13.365-12.343c0.581-0.529-0.127-0.823-0.903-0.293l-16.523 10.634-7.113-2.276c-1.547-0.493-1.575-1.581 0.323-2.34l27.822-10.956c1.288-0.493 2.415 0.292 1.995 2.304z"></path>
</symbol>
<symbol id="icon-cross" viewBox="0 0 32 32">
<path d="M31.708 25.708c-0-0-0-0-0-0l-9.708-9.708 9.708-9.708c0-0 0-0 0-0 0.105-0.105 0.18-0.227 0.229-0.357 0.133-0.356 0.057-0.771-0.229-1.057l-4.586-4.586c-0.286-0.286-0.702-0.361-1.057-0.229-0.13 0.048-0.252 0.124-0.357 0.228 0 0-0 0-0 0l-9.708 9.708-9.708-9.708c-0-0-0-0-0-0-0.105-0.104-0.227-0.18-0.357-0.228-0.356-0.133-0.771-0.057-1.057 0.229l-4.586 4.586c-0.286 0.286-0.361 0.702-0.229 1.057 0.049 0.13 0.124 0.252 0.229 0.357 0 0 0 0 0 0l9.708 9.708-9.708 9.708c-0 0-0 0-0 0-0.104 0.105-0.18 0.227-0.229 0.357-0.133 0.355-0.057 0.771 0.229 1.057l4.586 4.586c0.286 0.286 0.702 0.361 1.057 0.229 0.13-0.049 0.252-0.124 0.357-0.229 0-0 0-0 0-0l9.708-9.708 9.708 9.708c0 0 0 0 0 0 0.105 0.105 0.227 0.18 0.357 0.229 0.356 0.133 0.771 0.057 1.057-0.229l4.586-4.586c0.286-0.286 0.362-0.702 0.229-1.057-0.049-0.13-0.124-0.252-0.229-0.357z"></path>
</symbol>
</defs>
</svg>
